<svg width="153" height="153" xmlns="http://www.w3.org/2000/svg" xmlns:xlink="http://www.w3.org/1999/xlink" xml:space="preserve" overflow="hidden"><g transform="translate(-124 -2016)"><path d="M128 2092.5C128 2052.46 160.459 2020 200.5 2020 240.541 2020 273 2052.46 273 2092.5 273 2132.54 240.541 2165 200.5 2165 160.459 2165 128 2132.54 128 2092.5Z" stroke="#FFFFFF" stroke-width="8.02083" stroke-miterlimit="8" fill="none" fill-rule="evenodd"/><g><g><g><path d="M29 32.625 35.2349 50.9312C31.3291 53.4938 30.2403 58.7375 32.8029 62.6432 35.3654 66.549 40.6091 67.6378 44.5149 65.0753 46.8989 63.5111 48.3344 60.8512 48.3333 57.9999 48.3284 56.9115 48.1194 55.8334 47.717 54.822L60.2232 45.4574C61.6771 46.5371 63.4391 47.1215 65.2499 47.1249L65.3707 47.1249 73.5028 72.9711C69.759 75.7651 68.9891 81.0649 71.783 84.8087 74.5769 88.5525 79.8768 89.3225 83.6205 86.5286 87.3643 83.7346 88.1344 78.4347 85.3404 74.691 83.7396 72.5459 81.218 71.2852 78.5415 71.2916L78.0461 71.2916 69.9866 45.6749C73.8599 43.0635 74.8828 37.8066 72.2715 33.9333 69.6601 30.06 64.4031 29.0371 60.5298 31.6484 57.2975 33.8276 55.9733 37.9336 57.3232 41.5908L44.7083 51.052C43.2892 50.0667 41.6025 49.5397 39.8749 49.5416L39.8749 49.5416 33.6158 31.2475C37.5264 28.6923 38.6252 23.4507 36.07 19.5401 33.5149 15.6294 28.2733 14.5307 24.3626 17.0858 20.452 19.6411 19.3532 24.8826 21.9084 28.7932 23.4726 31.1872 26.1403 32.6286 29 32.625Z" fill="#FFFFFF" transform="matrix(-1.06035 0 0 1 261 2035)"/><path d="M93.0415 93.0415 16.9166 93.0415 16.9166 100.292 100.292 100.292 100.292 15.7083 93.0415 15.7083 93.0415 93.0415Z" fill="#FFFFFF" transform="matrix(-1.06035 0 0 1 261 2035)"/></g></g></g></g></svg>