<svg width="411" height="150" xmlns="http://www.w3.org/2000/svg" xmlns:xlink="http://www.w3.org/1999/xlink" xml:space="preserve" overflow="hidden"><g transform="translate(-42 -47)"><path d="M241.076 154.937C238.214 153.261 235.969 151.156 234.343 148.633L234.343 156.473 223.441 156.473 223.441 70.7299 234.832 70.7299 234.832 101.721C236.628 99.517 238.872 97.7415 241.565 96.3949 244.258 95.0483 246.951 94.37 249.645 94.37L258.343 94.37C262.672 94.37 266.522 95.3475 269.913 97.3125 273.295 99.2676 275.928 102.011 277.813 105.522 279.688 109.033 280.626 113.113 280.626 117.771L280.626 132.962C280.626 137.78 279.669 142.049 277.753 145.76 275.828 149.48 273.155 152.353 269.734 154.398 266.302 156.443 262.342 157.46 257.854 157.46L249.405 157.46C246.712 157.45 243.939 156.602 241.076 154.937ZM257.126 147.406C260.716 147.406 263.619 146.039 265.824 143.306 268.028 140.573 269.135 136.962 269.135 132.464L269.135 118.13C269.135 114.05 268.048 110.739 265.893 108.205 263.729 105.671 260.936 104.405 257.505 104.405L249.545 104.405C245.625 104.405 242.273 105.831 239.5 108.694 236.717 111.556 235.171 115.267 234.842 119.835L234.842 133.311C235.171 137.231 236.717 140.563 239.5 143.296 242.273 146.029 245.415 147.396 248.926 147.396L257.126 147.396Z" fill="#334650"/><path d="M373.72 99.8162C377.072 103.447 378.738 108.414 378.738 114.699L378.738 156.463 367.356 156.463 367.356 114.569C367.356 111.467 366.618 108.993 365.152 107.158 363.686 105.322 361.761 104.405 359.396 104.405L353.023 104.405C349.921 104.405 347.327 105.492 345.242 107.646 343.158 109.811 341.831 112.773 341.262 116.524L341.262 156.453 329.752 156.453 329.752 115.058C329.752 111.706 329.073 109.103 327.727 107.217 326.38 105.342 324.565 104.405 322.281 104.405L316.036 104.405C312.934 104.405 310.241 105.731 307.957 108.384 305.673 111.038 304.236 114.529 303.668 118.858L303.668 156.463 292.277 156.463 292.277 95.3475 303.179 95.3475 303.179 103.557C304.815 100.694 306.83 98.4596 309.244 96.8238 311.647 95.1879 314.121 94.38 316.655 94.38L323.757 94.38C327.019 94.38 329.861 95.1979 332.265 96.8238 334.669 98.4596 336.574 100.784 337.961 103.806 339.756 100.704 341.961 98.3599 344.574 96.7639 347.187 95.168 350 94.38 353.023 94.38L360.254 94.38C365.89 94.37 370.379 96.1854 373.72 99.8162Z" fill="#334650"/><path d="M398.896 176.552C395.106 173.37 393.001 169.2 392.592 164.063L403.984 164.063C404.233 166.268 405.21 168.063 406.926 169.45 408.642 170.836 410.766 171.535 413.3 171.535L423.714 171.535C427.394 171.535 430.267 170.248 432.352 167.674 434.436 165.101 435.474 161.57 435.474 157.081L435.474 148.872C433.678 151.076 431.434 152.872 428.741 154.258 426.048 155.645 423.474 156.343 421.03 156.343L412.213 156.343C407.804 156.343 403.884 155.365 400.453 153.4 397.021 151.445 394.368 148.662 392.493 145.072 390.617 141.481 389.68 137.351 389.68 132.703L389.68 118.988C389.68 114.17 390.677 109.881 392.682 106.13 394.677 102.38 397.48 99.4771 401.071 97.4322 404.662 95.3874 408.791 94.37 413.44 94.37L421.529 94.37C424.143 94.37 426.836 95.0882 429.609 96.5146 432.382 97.9409 434.546 99.7563 436.102 101.961L436.102 95.3475 446.885 95.3475 446.885 157.081C446.885 164.592 444.82 170.507 440.701 174.836 436.581 179.165 430.915 181.33 423.734 181.33L413.32 181.33C407.485 181.33 402.687 179.734 398.896 176.552ZM421.37 146.418C425.13 146.418 428.332 144.912 430.985 141.89 433.638 138.867 435.135 134.987 435.454 130.249L435.454 117.392C435.125 113.551 433.738 110.429 431.284 108.025 428.841 105.621 425.898 104.415 422.467 104.415L414.018 104.415C410.178 104.415 407.056 105.781 404.652 108.514 402.248 111.247 401.041 114.868 401.041 119.357L401.041 132.344C401.041 136.513 402.138 139.895 404.353 142.508 406.557 145.121 409.33 146.428 412.682 146.428L421.37 146.428Z" fill="#334650"/><path d="M117.589 51.1096C94.7669 51.1096 74.4584 62.0519 61.6009 78.9491 58.2893 83.298 55.4864 88.046 53.2521 93.1032L67.7553 93.1032 127.275 93.1032C133.09 93.1032 137.888 97.911 137.888 103.716 137.888 109.532 133.08 114.329 127.275 114.329L60.7032 114.329 47.6363 114.329C47.4069 116.654 47.2772 119.018 47.2772 121.411 47.2772 123.795 47.3969 126.159 47.6363 128.494L60.7032 128.494 127.285 128.494C133.1 128.494 137.898 133.301 137.898 139.107 137.898 144.912 133.09 149.74 127.285 149.74L67.7653 149.74 53.2621 149.74C55.4964 154.797 58.2993 159.545 61.6109 163.894 74.4683 180.801 94.7769 191.733 117.599 191.733 156.371 191.733 187.911 160.193 187.911 121.421 187.901 82.6497 156.361 51.1096 117.589 51.1096ZM117.589 178.766C102.787 178.766 89.2808 173.13 79.1066 163.894L127.285 163.894C140.91 163.894 152.062 152.742 152.062 139.117 152.062 132.204 149.189 125.93 144.581 121.421 149.189 116.913 152.062 110.639 152.062 103.726 152.062 90.1008 140.91 78.9491 127.285 78.9491L79.1066 78.9491C89.2908 69.7125 102.797 64.0767 117.589 64.0767 149.209 64.0767 174.934 89.8016 174.934 121.421 174.934 153.041 149.209 178.766 117.589 178.766Z" fill="#0ACF26"/></g></svg>