<svg width="153" height="154" xmlns="http://www.w3.org/2000/svg" xmlns:xlink="http://www.w3.org/1999/xlink" xml:space="preserve" overflow="hidden"><g transform="translate(-125 -1660)"><path d="M129 1737C129 1696.68 161.459 1664 201.5 1664 241.541 1664 274 1696.68 274 1737 274 1777.32 241.541 1810 201.5 1810 161.459 1810 129 1777.32 129 1737Z" stroke="#FFFFFF" stroke-width="8.02083" stroke-miterlimit="8" fill="none" fill-rule="evenodd"/><path d="M151 1722 250.687 1722" stroke="#FFFFFF" stroke-width="8.02083" stroke-miterlimit="8" fill="none" fill-rule="evenodd"/><path d="M151 1758 250.687 1758" stroke="#FFFFFF" stroke-width="8.02083" stroke-miterlimit="8" fill="none" fill-rule="evenodd"/><path d="M4.01042-3.89516e-05 4.01055 14.2404-4.01028 14.2405-4.01042 3.89516e-05ZM13.7501 9.65698 0.000360892 37.1571-13.7499 9.65725Z" fill="#FFFFFF" transform="matrix(1 0 0 -1 201 1797.16)"/><path d="M4.01042-3.89516e-05 4.01055 14.2404-4.01028 14.2405-4.01042 3.89516e-05ZM13.7501 9.65698 0.000360892 37.1571-13.7499 9.65725Z" fill="#FFFFFF" transform="matrix(-1 1.22465e-16 1.22465e-16 1 201 1682)"/></g></svg>