<svg width="67" height="67" xmlns="http://www.w3.org/2000/svg" xmlns:xlink="http://www.w3.org/1999/xlink" xml:space="preserve" overflow="hidden"><g transform="translate(-27 -155)"><path d="M58.5598 205.815C49.8051 204.374 43.3895 196.793 43.415 187.921 43.4282 186.822 43.5403 185.726 43.75 184.648L43.8058 184.648 45.083 186.86C45.4685 187.529 46.3231 187.758 46.9918 187.373 47.6606 186.987 47.8903 186.133 47.5048 185.464L44.5386 180.334C44.354 180.015 44.0504 179.782 43.6942 179.685 43.3361 179.589 42.9544 179.639 42.6333 179.825L37.4688 182.805C36.7857 183.162 36.5216 184.006 36.8789 184.689 37.2363 185.372 38.0797 185.636 38.7628 185.279 38.7975 185.26 38.8315 185.241 38.8646 185.22L41.0002 183.984C40.7518 185.282 40.6256 186.6 40.6233 187.921 40.5916 198.149 47.9806 206.892 58.0713 208.565L58.3085 208.565C59.0795 208.627 59.7543 208.052 59.816 207.281 59.8777 206.51 59.3028 205.835 58.5319 205.773Z" fill="#FFFFFF"/><path d="M82.4983 187.921C82.5012 185.427 82.0593 182.952 81.1932 180.614 80.9234 179.891 80.1188 179.524 79.3961 179.793 78.6734 180.063 78.3062 180.868 78.576 181.591 82.0707 190.983 77.2896 201.43 67.8969 204.925 67.8299 204.95 67.7628 204.975 67.6955 204.999L67.6955 204.999 68.9657 202.779C69.3512 202.109 69.12 201.253 68.4493 200.867 67.7786 200.482 66.9224 200.713 66.537 201.384L63.6057 206.527C63.2222 207.196 63.4534 208.049 64.1221 208.432 64.1221 208.432 64.1222 208.432 64.1222 208.432L69.2658 211.371C69.9365 211.756 70.7927 211.525 71.1781 210.854 71.5636 210.184 71.3324 209.327 70.6617 208.942L68.4842 207.707C76.905 204.785 82.5371 196.834 82.4983 187.921Z" fill="#FFFFFF"/><path d="M70.6338 173.941C69.8628 173.941 69.2379 174.566 69.2379 175.337 69.2379 176.108 69.8628 176.733 70.6338 176.733L76.3706 176.733C76.4241 176.737 76.4777 176.737 76.5311 176.733 76.7998 176.733 77.0623 176.653 77.2849 176.503L77.3826 176.44 77.4245 176.405 77.4245 176.405 77.5152 176.335C77.7884 176.075 77.9446 175.715 77.9479 175.337L77.9479 169.419C77.9479 168.648 77.323 168.023 76.5521 168.023 75.7812 168.023 75.1562 168.648 75.1562 169.419L75.1562 171.966 75.1562 171.966C66.3548 164.466 53.14 165.522 45.6401 174.323 45.6078 174.361 45.5757 174.399 45.5436 174.437 45.0464 175.027 45.1214 175.908 45.7111 176.405 46.3009 176.902 47.1821 176.827 47.6793 176.238 54.0889 168.603 65.4568 167.569 73.1393 173.921Z" fill="#FFFFFF"/></g></svg>