<svg width="231" height="231" xmlns="http://www.w3.org/2000/svg" xmlns:xlink="http://www.w3.org/1999/xlink" xml:space="preserve" overflow="hidden"><g transform="translate(-93 -531)"><path d="M201.811 706.199C171.627 701.229 149.507 675.093 149.595 644.503 149.641 640.714 150.027 636.937 150.75 633.218L150.943 633.218 155.346 640.845C156.675 643.151 159.622 643.943 161.927 642.614 164.233 641.285 165.025 638.339 163.696 636.033L153.469 618.347C152.833 617.246 151.786 616.441 150.558 616.109 149.323 615.777 148.007 615.951 146.9 616.59L129.094 626.865C126.739 628.097 125.828 631.005 127.06 633.36 128.292 635.715 131.2 636.626 133.555 635.394 133.675 635.331 133.792 635.263 133.906 635.191L141.27 630.932C140.413 635.405 139.978 639.949 139.97 644.503 139.861 679.768 165.336 709.911 200.126 715.68L200.945 715.68C203.602 715.893 205.929 713.91 206.142 711.252 206.355 708.594 204.372 706.268 201.715 706.055Z" fill="#FFFFFF"/><path d="M284.345 644.503C284.355 635.904 282.831 627.373 279.845 619.31 278.915 616.818 276.141 615.552 273.649 616.482 271.158 617.412 269.892 620.187 270.822 622.678 282.871 655.062 266.387 691.081 234.003 703.13 233.772 703.216 233.541 703.301 233.309 703.384L233.309 703.384 237.688 695.732C239.017 693.42 238.22 690.468 235.907 689.139 233.595 687.81 230.643 688.607 229.314 690.919L219.208 708.654C217.886 710.959 218.683 713.9 220.988 715.222 220.988 715.223 220.989 715.223 220.989 715.223L238.723 725.353C241.035 726.682 243.987 725.885 245.316 723.572 246.645 721.26 245.848 718.308 243.535 716.979L236.028 712.72C265.061 702.648 284.479 675.233 284.345 644.503Z" fill="#FFFFFF"/><path d="M243.439 596.306C240.781 596.306 238.626 598.46 238.626 601.118 238.626 603.776 240.781 605.931 243.439 605.931L263.218 605.931C263.403 605.943 263.587 605.943 263.772 605.931 264.698 605.931 265.603 605.655 266.37 605.137L266.707 604.92 266.852 604.8 266.852 604.8 267.165 604.559C268.107 603.661 268.645 602.42 268.656 601.118L268.656 580.713C268.656 578.055 266.502 575.901 263.844 575.901 261.186 575.901 259.031 578.055 259.031 580.713L259.031 589.496 259.031 589.496C228.686 563.638 183.125 567.276 157.267 597.621 157.155 597.752 157.045 597.883 156.934 598.014 155.22 600.047 155.478 603.086 157.512 604.8 159.545 606.514 162.583 606.256 164.297 604.222 186.396 577.901 225.59 574.334 252.077 596.234Z" fill="#FFFFFF"/><g><g><g><path d="M212.5 658.875C205.694 658.875 200.125 653.306 200.125 646.5 200.125 639.694 205.694 634.125 212.5 634.125 219.306 634.125 224.875 639.694 224.875 646.5 224.875 653.306 219.306 658.875 212.5 658.875ZM240.344 638.766C239.725 636.497 238.797 634.331 237.662 632.372L240.241 624.638 234.362 618.76 226.628 621.338C224.566 620.203 222.4 619.275 220.131 618.656L216.625 611.438 208.375 611.438 204.766 618.656C202.497 619.275 200.331 620.203 198.372 621.338L190.637 618.76 184.759 624.638 187.337 632.372C186.203 634.435 185.275 636.6 184.656 638.869L177.437 642.375 177.437 650.625 184.656 654.234C185.275 656.503 186.203 658.669 187.337 660.628L184.759 668.363 190.637 674.241 198.372 671.663C200.434 672.797 202.6 673.725 204.869 674.344L208.478 681.563 216.728 681.563 220.337 674.344C222.606 673.725 224.772 672.797 226.731 671.663L234.466 674.241 240.344 668.363 237.766 660.628C238.9 658.566 239.828 656.4 240.447 654.131L247.666 650.522 247.666 642.272 240.344 638.766Z" fill="#FFFFFF"/></g></g></g></g></svg>