<svg width="153" height="153" xmlns="http://www.w3.org/2000/svg" xmlns:xlink="http://www.w3.org/1999/xlink" xml:space="preserve" overflow="hidden"><g transform="translate(-127 -1284)"><g><g><g><path d="M147.75 1336.27 169.701 1336.27 169.701 1344.52 147.75 1344.52Z" stroke="#FFFFFF" stroke-width="1.375" fill="#FFFFFF"/><path d="M189 1336.27 189 1344.52 216.475 1344.52 216.475 1413.25 224.725 1413.25 224.725 1336.27 189 1336.27Z" stroke="#FFFFFF" stroke-width="1.375" fill="#FFFFFF"/><path d="M210.951 1376.1 183.424 1376.1 183.424 1307.37 175.174 1307.37 175.174 1384.35 210.951 1384.35 210.951 1376.1Z" stroke="#FFFFFF" stroke-width="1.375" fill="#FFFFFF"/><path d="M230.25 1376.1 252.151 1376.1 252.151 1384.35 230.25 1384.35Z" stroke="#FFFFFF" stroke-width="1.375" fill="#FFFFFF"/></g></g></g><path d="M131 1360.5C131 1320.46 163.459 1288 203.5 1288 243.541 1288 276 1320.46 276 1360.5 276 1400.54 243.541 1433 203.5 1433 163.459 1433 131 1400.54 131 1360.5Z" stroke="#FFFFFF" stroke-width="8.02083" stroke-miterlimit="8" fill="none" fill-rule="evenodd"/></g></svg>